<svg width="18" height="18" viewBox="0 0 18 18" fill="none" xmlns="http://www.w3.org/2000/svg">
<g id="Evernote">
<path id="Vector" d="M7.19957 0.719971C6.20676 0.719971 5.39957 1.52716 5.39957 2.51997V4.31997C5.39957 4.51825 5.23785 4.67997 5.03957 4.67997H3.23957C2.46191 4.67997 1.82207 5.30716 1.81363 6.07919C1.79676 7.66403 1.96972 9.19122 2.27207 10.1629C2.61941 11.2697 3.31129 11.9868 4.21832 12.1823L6.76363 12.7617C7.15457 12.8447 7.55254 12.7659 7.8816 12.5395C8.21066 12.3131 8.42722 11.9714 8.49191 11.5439L8.54957 10.7029C8.96301 11.2204 9.64785 11.52 10.4396 11.52H11.5196C12.3141 11.52 12.9596 12.1654 12.9596 12.96V14.04C12.9596 14.6348 12.4744 15.12 11.8796 15.12H10.8375C10.6449 15.12 10.4705 14.9906 10.4452 14.8233C10.4269 14.7136 10.455 14.6095 10.5239 14.5279C10.5928 14.4464 10.6941 14.4 10.7996 14.4H11.5196C11.7193 14.4 11.8796 14.2383 11.8796 14.04V12.6C11.8796 12.4017 11.7193 12.24 11.5196 12.24H10.4396C9.24847 12.24 8.27957 13.2089 8.27957 14.4V15.12C8.27957 16.3111 9.24847 17.28 10.4396 17.28H12.2396C15.8396 17.28 15.8396 12.1739 15.8396 9.71997C15.8396 7.23372 15.7805 5.60669 15.4683 4.12872C15.2208 2.96153 14.5163 2.27528 13.3561 2.08966C13.2619 2.07981 11.2088 1.87169 10.0219 1.81122C9.82222 1.21497 9.14019 0.719971 8.42582 0.719971H7.19957ZM4.84269 1.63685L2.30019 4.17935C2.58426 4.04013 2.90347 3.95997 3.23957 3.95997H4.67957V2.51997C4.67957 2.20919 4.73863 1.91247 4.84269 1.63685ZM12.4196 7.19997C12.9174 7.19997 13.3196 7.60357 13.3196 8.09997C13.3196 8.31372 13.2422 8.50638 13.1185 8.66107C12.8457 8.43466 12.3155 8.27997 11.6996 8.27997C11.6447 8.27997 11.5927 8.28419 11.5407 8.287C11.5266 8.22653 11.5196 8.16466 11.5196 8.09997C11.5196 7.60216 11.9218 7.19997 12.4196 7.19997Z" fill="white"/>
</g>
</svg>
