<svg width="19" height="10" viewBox="0 0 19 10" fill="none" xmlns="http://www.w3.org/2000/svg">
<g id="LANGCHAIN">
<path id="Vector" d="M14.1927 2.91797C13.9596 2.91797 13.7404 3.00827 13.5764 3.17232L12.9134 3.83352C12.7345 4.01189 12.6427 4.25957 12.6615 4.51349C12.6628 4.52735 12.6642 4.54121 12.6655 4.55551C12.6893 4.75042 12.7749 4.92611 12.9134 5.0638C13.0089 5.15902 13.1142 5.21939 13.242 5.26141C13.2487 5.29985 13.2523 5.33873 13.2523 5.37764C13.2523 5.55289 13.1842 5.7174 13.0604 5.84079L13.0196 5.88147C12.7982 5.8059 12.6135 5.6955 12.4468 5.52919C12.2253 5.30833 12.0787 5.02938 12.0236 4.72316L12.016 4.68067L11.9824 4.70796C11.9595 4.72628 11.938 4.74596 11.9178 4.76606L11.2548 5.42726C10.9151 5.76612 10.9151 6.31824 11.2548 6.6571C11.4247 6.82653 11.648 6.91147 11.8716 6.91147C12.0953 6.91147 12.3181 6.82653 12.488 6.6571L13.151 5.99592C13.4908 5.65703 13.4908 5.10538 13.151 4.76606C13.0604 4.67578 12.9524 4.60781 12.83 4.56401C12.8233 4.5242 12.8197 4.48442 12.8197 4.44554C12.8197 4.25509 12.895 4.07448 13.0331 3.93679C13.255 4.01233 13.4518 4.13484 13.6181 4.30069C13.8391 4.52109 13.9852 4.7996 14.0412 5.10672L14.0488 5.14918L14.0825 5.12192C14.1053 5.1036 14.1268 5.08392 14.1475 5.06336L14.8105 4.40218C15.1502 4.0633 15.1507 3.5112 14.8105 3.17232C14.6459 3.00827 14.4272 2.91797 14.1936 2.91797H14.1927Z" fill="white"/>
<path id="Vector_2" d="M13.8371 0.5H5.1623C2.69059 0.5 0.679688 2.50547 0.679688 4.97052C0.679688 7.43555 2.69059 9.44103 5.1623 9.44103H13.8371C16.3088 9.44103 18.3197 7.43555 18.3197 4.97052C18.3197 2.50547 16.3088 0.5 13.8371 0.5ZM9.55842 7.50888C9.41541 7.53838 9.25448 7.54374 9.14511 7.42975C9.10476 7.52228 9.01063 7.47355 8.93801 7.46149C8.93128 7.48025 8.92546 7.49679 8.91918 7.51558C8.67757 7.53168 8.49647 7.2858 8.38128 7.10027C8.15265 6.97688 7.89311 6.90178 7.65956 6.77257C7.64611 6.98538 7.69275 7.24914 7.48967 7.38639C7.47936 7.79543 8.11008 7.43467 8.16789 7.73955C8.12308 7.74447 8.07333 7.73239 8.03745 7.76681C7.87294 7.92642 7.68423 7.64613 7.49461 7.76191C7.23999 7.88976 7.21445 7.99437 6.89931 8.02075C6.88185 7.99437 6.88901 7.97692 6.90379 7.96084C6.99256 7.85802 6.99884 7.73687 7.15035 7.69305C6.99436 7.66847 6.8639 7.75431 6.73256 7.82226C6.56177 7.892 6.56313 7.66488 6.30045 7.83431C6.2713 7.81063 6.2852 7.78917 6.30179 7.77085C6.36857 7.68949 6.45644 7.67741 6.55551 7.68189C6.06824 7.41097 5.83873 8.01315 5.6137 7.71363C5.54602 7.73151 5.52047 7.79229 5.47788 7.83522C5.44113 7.79499 5.46892 7.74625 5.47072 7.69887C5.42678 7.67831 5.37119 7.66847 5.38419 7.59828C5.29813 7.56922 5.23807 7.62018 5.17397 7.66847C5.11613 7.62376 5.21296 7.5585 5.23088 7.512C5.28244 7.42259 5.39988 7.49368 5.45949 7.42929C5.62895 7.33319 5.86518 7.48919 6.05884 7.46283C6.2081 7.48159 6.39278 7.3287 6.31791 7.17625C6.15835 6.97286 6.18657 6.70687 6.18299 6.46367C6.16327 6.32194 5.82214 6.14133 5.72353 5.98844C5.6016 5.85075 5.50657 5.69117 5.41154 5.53426C5.06862 4.87215 5.17665 4.02142 4.74452 3.40672C4.54908 3.51447 4.29446 3.46351 4.12593 3.3191C4.03492 3.4018 4.03088 3.50999 4.02372 3.6249C3.80541 3.40719 3.83276 2.99588 4.00713 2.75358C4.07842 2.65792 4.16358 2.57924 4.25861 2.50994C4.28012 2.4943 4.2873 2.4791 4.28684 2.45495C4.45943 1.68066 5.63657 1.82998 6.00862 2.37851C6.27848 2.71604 6.36007 3.16263 6.66622 3.47603C7.07816 3.92576 7.54751 4.32184 7.92762 4.80063C8.28713 5.2383 8.54399 5.75151 8.76811 6.26876C8.85956 6.44041 8.86046 6.65098 8.99584 6.79761C9.06262 6.88614 9.38896 7.12709 9.31814 7.21248C9.35893 7.30098 9.66375 7.42303 9.55795 7.50888H9.55842ZM15.2755 4.86769L14.6126 5.52887C14.4359 5.70503 14.2176 5.83645 13.981 5.90842L13.9688 5.912L13.9644 5.92362C13.8873 6.12659 13.7703 6.30764 13.6161 6.46099L12.9531 7.12217C12.664 7.41053 12.2794 7.56922 11.8696 7.56922C11.4599 7.56922 11.0753 7.41053 10.7862 7.12217C10.1887 6.52626 10.1887 5.55704 10.7862 4.96112L11.4492 4.29994C11.6267 4.12291 11.8392 3.9955 12.0799 3.92174L12.092 3.91816L12.0965 3.90654C12.1736 3.70356 12.291 3.52207 12.4457 3.36738L13.1086 2.7062C13.3978 2.41785 13.7824 2.25915 14.1921 2.25915C14.6018 2.25915 14.9864 2.41785 15.2755 2.7062C15.5647 2.99454 15.7238 3.37812 15.7238 3.78673C15.7238 4.19533 15.5647 4.57934 15.2755 4.86726V4.86769Z" fill="white"/>
<path id="Vector_3" d="M6.86165 6.70869C6.80337 6.93491 6.78455 7.31981 6.4896 7.33099C6.46539 7.46154 6.58014 7.5107 6.68504 7.46868C6.78859 7.4213 6.83788 7.50624 6.87285 7.59073C7.03288 7.61397 7.26957 7.53752 7.27854 7.34843C7.0396 7.21118 6.96564 6.95011 6.86209 6.70825L6.86165 6.70869Z" fill="white"/>
</g>
</svg>
