<svg width="19" height="8" viewBox="0 0 19 8" fill="none" xmlns="http://www.w3.org/2000/svg">
<g id="Group 6">
<path id="Vector" d="M17.7315 0.399902H10.5152C10.1892 0.399902 9.92578 0.664331 9.92578 0.990324V4.35623C9.92578 4.68223 10.1902 4.94565 10.5152 4.94565H14.8722C15.3738 5.64406 14.4322 7.53946 14.4322 7.53946C14.4322 7.53946 16.2822 5.76315 16.7494 4.94565H17.7305C18.0564 4.94565 18.3199 4.68122 18.3199 4.35623V0.990324C18.3219 0.664331 18.0575 0.399902 17.7315 0.399902Z" fill="#005186"/>
<path id="Vector_2" d="M0.679688 4.24127V1.04492H1.54766L2.36819 3.33899L3.17561 1.04492H4.04862V4.24228H3.45215L3.4693 1.68076L2.57509 4.24228H2.15221L1.25396 1.68076L1.27112 4.24228H0.679688V4.24127Z" fill="#D31E47"/>
<path id="Vector_3" d="M5.05165 3.24316C5.07789 3.62365 5.41499 3.83459 5.73896 3.83055C6.0155 3.83055 6.20121 3.7054 6.3092 3.51061H6.89255C6.78053 3.77403 6.61198 3.97286 6.41315 4.10709C6.21433 4.24536 5.98118 4.315 5.73492 4.315C5.00522 4.315 4.48242 3.72357 4.48242 3.0625C4.48242 2.38831 5.00926 1.79688 5.72685 1.79688C6.0811 1.79688 6.39196 1.93111 6.61299 2.16021C6.90265 2.45795 7.01064 2.82936 6.9632 3.24417H5.05165V3.24316ZM6.40407 2.81119C6.38287 2.58612 6.14469 2.27123 5.72988 2.27527C5.31103 2.27527 5.08193 2.57805 5.05972 2.81119H6.40407Z" fill="#D31E47"/>
<path id="Vector_4" d="M7.38867 1.86958H7.92459V2.18043C8.02855 1.96848 8.22233 1.79994 8.58163 1.7959V2.36613H8.55539C8.15773 2.36613 7.95487 2.55184 7.95487 2.96261V4.24135H7.38867V1.86958Z" fill="#D31E47"/>
<path id="Vector_5" d="M8.92676 1.04492H9.49296V1.55057H8.92676V1.04492ZM8.92676 1.86949H9.49296V4.24127H8.92676V1.86949Z" fill="#D31E47"/>
<path id="Vector_6" d="M11.0648 1.49405H10.3301V1.04492H12.3093V1.49405H11.5745V4.24127H11.0648V1.49405Z" fill="white"/>
<path id="Vector_7" d="M14.5448 4.24148H14.0957V3.83172C13.9312 4.14762 13.5941 4.31112 13.2226 4.31112C12.4667 4.31112 12.0176 3.72373 12.0176 3.06669C12.0176 2.3491 12.5404 1.82227 13.2226 1.82227C13.6889 1.82227 13.9877 2.08165 14.0957 2.30571V1.8909H14.5448V4.24148ZM12.4667 3.07477C12.4707 3.42498 12.717 3.89127 13.2872 3.89127C13.6455 3.89127 13.9009 3.69244 14.0169 3.42498C14.0684 3.31699 14.0947 3.19588 14.0987 3.07477C14.1027 2.95366 14.0815 2.83254 14.0301 2.72455C13.918 2.45205 13.6546 2.24111 13.2782 2.24111C12.7856 2.24111 12.4657 2.62968 12.4657 3.07073V3.07477H12.4667Z" fill="white"/>
<path id="Vector_8" d="M14.9932 1.04492H15.4423V2.81215V4.24228H14.9932V2.81114V1.04492Z" fill="white"/>
<path id="Vector_9" d="M15.9473 1.04492H16.4014V2.82022L17.3219 1.8917H17.8659L16.8203 2.92418L17.8962 4.24228H17.3734L16.4014 3.03217V4.24228H15.9473V1.04492Z" fill="white"/>
</g>
</svg>
