<svg width="19" height="18" viewBox="0 0 19 18" fill="none" xmlns="http://www.w3.org/2000/svg">
<g id="Meta" clipPath="url(#clip0_2002_3114)">
<path id="Vector" d="M18.125 11.01L17.3026 11.6336L16.4825 11.0625C16.4825 11.0025 16.4825 10.9388 16.4788 10.875C16.4788 10.815 16.4787 10.7513 16.475 10.6875C16.4225 9.21 16.0475 7.6275 15.2975 6.46875C14.72 5.58 13.9813 5.15625 13.1562 5.15625C12.29 5.15625 11.585 5.67375 10.805 6.79875C10.7825 6.8325 10.7563 6.86625 10.7338 6.90375C10.7188 6.9225 10.7075 6.94125 10.6925 6.96375C10.655 7.02 10.6175 7.07625 10.58 7.13625C10.2425 7.66125 9.89 8.2725 9.5075 8.9475C9.47375 9.01125 9.43625 9.075 9.4025 9.13875C9.39125 9.15375 9.38 9.1725 9.3725 9.1875L9.29375 9.32625L8.82875 10.1475C7.7375 12.0787 7.46 12.5212 6.91625 13.245C5.96 14.5162 5.1425 15 4.06625 15C2.79125 15 1.98125 14.4488 1.4825 13.6163C1.07375 12.9413 0.875 12.0525 0.875 11.04L2.73875 11.1038C2.73875 11.7638 2.88125 12.2662 3.0725 12.5737C3.32 12.9712 3.68375 13.125 4.0625 13.125C4.54625 13.125 4.99625 13.0237 5.85125 11.8387C6.5375 10.89 7.3475 9.5625 7.89125 8.72625L8.405 7.9425L8.51375 7.77L8.62625 7.60125L8.81375 7.3125C9.09875 6.8775 9.40625 6.41625 9.73625 5.97375C9.77375 5.92125 9.81125 5.86875 9.8525 5.81625C9.89 5.76375 9.93125 5.71125 9.96875 5.6625C10.3062 5.23125 10.6625 4.83 11.045 4.5C11.7388 3.89625 12.485 3.5625 13.2388 3.5625C14.5025 3.5625 15.7062 4.29375 16.6287 5.66625C17.57 7.06875 18.0612 8.81625 18.1175 10.635C18.1212 10.695 18.1213 10.7588 18.1213 10.8225C18.125 10.8863 18.125 10.9463 18.125 11.01Z" fill="#0081FB"/>
<path id="Vector_2" d="M2.34375 5.796C3.19762 4.48163 4.43063 3.5625 5.84438 3.5625C6.66338 3.5625 7.47713 3.80437 8.32725 4.49738C9.25688 5.25488 10.248 6.50212 11.4844 8.55787L11.9276 9.2955C12.9979 11.0752 13.6065 11.9906 13.9631 12.4226C14.4214 12.9772 14.7075 13.125 15.1245 13.125C16.182 13.125 16.4809 12.1725 16.4809 11.0621L18.1245 11.0107C18.1245 12.1714 17.8954 13.0241 17.5054 13.6976C17.1289 14.349 16.3946 15 15.1594 15C14.3914 15 13.7111 14.8335 12.9589 14.1251C12.3806 13.5814 11.7045 12.6154 11.1844 11.7473L9.63713 9.16763C8.86088 7.87313 8.14875 6.9075 7.73662 6.47062C7.29337 6.00037 6.74588 5.43788 5.8365 5.43788C5.10038 5.43788 4.45312 5.94862 3.93 6.73725L2.34375 5.796Z" fill="url(#paint0_linear_2002_3114)"/>
<path id="Vector_3" d="M5.84375 5.4375C5.10913 5.4375 4.46263 5.94825 3.94063 6.73687C3.20225 7.85137 2.75 9.51112 2.75 11.1052C2.75 11.7626 2.74887 12.2572 2.9375 12.5625L1.4975 13.6174C1.09025 12.9401 0.875 12.075 0.875 11.0625C0.875 9.22125 1.38313 7.27837 2.34425 5.796C3.197 4.48163 4.44013 3.5625 5.85125 3.5625L5.84375 5.4375Z" fill="url(#paint1_linear_2002_3114)"/>
<path id="Vector_4" opacity="0.05" d="M8.62652 7.60135L8.51402 7.7701L8.40527 7.9426C8.67152 8.32885 8.97527 8.79385 9.29402 9.32635L9.37277 9.1876C9.38027 9.1726 9.39152 9.15385 9.40277 9.13885C9.43652 9.0751 9.47402 9.01135 9.50777 8.9476C9.19652 8.4376 8.89652 7.98385 8.62652 7.60135ZM9.85277 5.81635C9.81152 5.86885 9.77402 5.92135 9.73652 5.97385C10.0103 6.3151 10.2878 6.70135 10.5803 7.13635C10.6178 7.07635 10.6553 7.0201 10.6928 6.96385C10.7078 6.94135 10.719 6.9226 10.734 6.90385C10.7565 6.86635 10.7828 6.8326 10.8053 6.79885C10.5203 6.37885 10.2428 6.0001 9.96902 5.6626C9.93152 5.71135 9.89027 5.76385 9.85277 5.81635Z" fill="black"/>
<path id="Vector_5" opacity="0.07" d="M8.62617 7.60116L8.51367 7.76991C8.77992 8.15241 9.07992 8.60991 9.40242 9.13866C9.43617 9.07491 9.47367 9.01116 9.50742 8.94741C9.19617 8.43741 8.89617 7.98366 8.62617 7.60116ZM9.73617 5.97366C10.0099 6.31491 10.2874 6.70116 10.5799 7.13616C10.6174 7.07616 10.6549 7.01991 10.6924 6.96366C10.4037 6.53616 10.1224 6.15366 9.85242 5.81616C9.81117 5.86866 9.77367 5.92116 9.73617 5.97366Z" fill="black"/>
</g>
<defs>
<linearGradient id="paint0_linear_2002_3114" x1="16.3635" y1="9.28125" x2="5.57438" y2="9.28125" gradientUnits="userSpaceOnUse">
<stop stopColor="#0081FB"/>
<stop offset="0.995" stopColor="#0064E1"/>
</linearGradient>
<linearGradient id="paint1_linear_2002_3114" x1="3.36313" y1="12.3262" x2="3.36313" y2="4.8795" gradientUnits="userSpaceOnUse">
<stop stopColor="#0081FB"/>
<stop offset="0.995" stopColor="#0064E1"/>
</linearGradient>
<clipPath id="clip0_2002_3114">
<rect width="18" height="18" fill="white" transform="translate(0.5)"/>
</clipPath>
</defs>
</svg>
