<svg width="19" height="18" viewBox="0 0 19 18" fill="none" xmlns="http://www.w3.org/2000/svg">
<g clipPath="url(#clip0_2002_2588)">
<path d="M7.35555 3.24121C7.15683 3.24121 6.99555 3.40285 6.99555 3.60121V4.35707C7.23099 4.33331 7.47145 4.32121 7.71625 4.32121C10.6567 4.32121 12.8109 5.97532 14.4543 7.6702C14.5825 7.80268 14.59 8.01106 14.4719 8.15254C12.7403 10.2225 10.5945 11.8812 8.07555 11.8812H8.05727C7.68311 11.8625 7.32909 11.812 6.99484 11.7314V10.617C7.32551 10.7335 7.68557 10.8005 8.07485 10.8005C9.55373 10.8005 11.6025 9.60531 12.7548 7.92051C11.8458 6.75519 9.43277 5.40051 7.71485 5.40051C7.4777 5.40051 7.23736 5.42119 6.99555 5.45957V4.35707C4.47735 4.61015 2.4266 6.1509 0.643517 7.64418C0.528317 7.74066 0.485195 7.89926 0.535235 8.04074C1.55576 10.9299 3.79771 13.4863 6.99414 13.9618L6.99484 14.7605C6.99484 14.9592 7.15613 15.1201 7.35485 15.1205H18.1555C18.3539 15.1205 18.5155 14.9592 18.5155 14.7605V3.60121C18.5155 3.40285 18.3539 3.24121 18.1555 3.24121H7.35555ZM6.99414 5.45957V6.49879C5.78864 6.61798 4.63575 7.31466 3.5432 8.11176C3.40352 8.21364 3.3562 8.40096 3.43 8.55684C4.23305 10.2547 5.38781 11.3436 6.99414 11.7314V12.8178C4.64753 12.2167 2.37923 9.85536 1.95555 8.28051C3.34228 6.99383 5.21363 5.74115 6.99414 5.45957ZM7.35485 6.48051C8.84165 6.48051 10.0297 6.86432 10.8466 7.66316L9.15485 9.00051C8.94641 8.42055 8.20301 7.56051 7.35485 7.56051C7.24079 7.56051 7.11997 7.57487 6.99555 7.59918V6.49879C7.11461 6.48664 7.23436 6.48051 7.35485 6.48051ZM6.99414 7.59988V10.617C5.99222 10.263 5.26458 9.44926 4.83555 8.64051C5.40685 8.25341 6.26904 7.74177 6.99414 7.59988ZM14.9155 9.36121L16.9645 10.7014C15.1169 12.4726 11.6723 14.0412 8.07555 14.0412C7.70427 14.0412 7.34347 14.0135 6.99484 13.9618V12.8178C7.35534 12.9102 7.71757 12.9612 8.07555 12.9612C10.5592 12.9612 13.2909 11.0345 14.9155 9.36121Z" fill="#CCFD6A"/>
<path d="M7.35555 3.24121C7.15683 3.24121 6.99555 3.40285 6.99555 3.60121V4.35707C7.23099 4.33331 7.47145 4.32121 7.71625 4.32121C10.6567 4.32121 12.8109 5.97532 14.4543 7.6702C14.5825 7.80268 14.59 8.01106 14.4719 8.15254C12.7403 10.2225 10.5945 11.8812 8.07555 11.8812H8.05727C7.68311 11.8625 7.32909 11.812 6.99484 11.7314V10.617C7.32551 10.7335 7.68557 10.8005 8.07485 10.8005C9.55373 10.8005 11.6025 9.60531 12.7548 7.92051C11.8458 6.75519 9.43277 5.40051 7.71485 5.40051C7.4777 5.40051 7.23736 5.42119 6.99555 5.45957V4.35707C4.47735 4.61015 2.4266 6.1509 0.643517 7.64418C0.528317 7.74066 0.485195 7.89926 0.535235 8.04074C1.55576 10.9299 3.79771 13.4863 6.99414 13.9618L6.99484 14.7605C6.99484 14.9592 7.15613 15.1201 7.35485 15.1205H18.1555C18.3539 15.1205 18.5155 14.9592 18.5155 14.7605V3.60121C18.5155 3.40285 18.3539 3.24121 18.1555 3.24121H7.35555ZM6.99414 5.45957V6.49879C5.78864 6.61798 4.63575 7.31466 3.5432 8.11176C3.40352 8.21364 3.3562 8.40096 3.43 8.55684C4.23305 10.2547 5.38781 11.3436 6.99414 11.7314V12.8178C4.64753 12.2167 2.37923 9.85536 1.95555 8.28051C3.34228 6.99383 5.21363 5.74115 6.99414 5.45957ZM7.35485 6.48051C8.84165 6.48051 10.0297 6.86432 10.8466 7.66316L9.15485 9.00051C8.94641 8.42055 8.20301 7.56051 7.35485 7.56051C7.24079 7.56051 7.11997 7.57487 6.99555 7.59918V6.49879C7.11461 6.48664 7.23436 6.48051 7.35485 6.48051ZM6.99414 7.59988V10.617C5.99222 10.263 5.26458 9.44926 4.83555 8.64051C5.40685 8.25341 6.26904 7.74177 6.99414 7.59988ZM14.9155 9.36121L16.9645 10.7014C15.1169 12.4726 11.6723 14.0412 8.07555 14.0412C7.70427 14.0412 7.34347 14.0135 6.99484 13.9618V12.8178C7.35534 12.9102 7.71757 12.9612 8.07555 12.9612C10.5592 12.9612 13.2909 11.0345 14.9155 9.36121Z" fill="#77B900"/>
</g>
<defs>
<clipPath id="clip0_2002_2588">
<rect width="18" height="18" fill="white" transform="translate(0.5)"/>
</clipPath>
</defs>
</svg>
