<svg width="19" height="18" viewBox="0 0 19 18" fill="none" xmlns="http://www.w3.org/2000/svg">
<g id="OpenAI">
<path id="Vector" d="M16.5321 7.53047C16.9046 6.42733 16.7764 5.21889 16.1807 4.21548C15.2849 2.67645 13.484 1.88465 11.7253 2.25726C10.9428 1.38751 9.81872 0.89289 8.64022 0.899977C6.84245 0.895927 5.24734 2.03805 4.69426 3.72593C3.53936 3.95931 2.54248 4.67263 1.95913 5.68364C1.05665 7.21862 1.26239 9.15355 2.46808 10.4698C2.0956 11.573 2.22387 12.7814 2.81953 13.7848C3.71534 15.3239 5.51618 16.1156 7.27496 15.743C8.05687 16.6128 9.1815 17.1074 10.36 17.0998C12.1588 17.1044 13.7544 15.9612 14.3075 14.2718C15.4624 14.0385 16.4593 13.3251 17.0426 12.3141C17.9441 10.7792 17.7378 8.84574 16.5326 7.52946L16.5321 7.53047ZM10.361 16.0412C9.6412 16.0422 8.94395 15.7937 8.39138 15.3385C8.41652 15.3254 8.46013 15.3016 8.48835 15.2844L11.7576 13.4213C11.9248 13.3277 12.0275 13.152 12.0264 12.9621V8.41441L13.4081 9.20164C13.423 9.20873 13.4327 9.2229 13.4348 9.2391V13.0052C13.4327 14.6799 12.0582 16.0377 10.361 16.0412ZM3.75074 13.2553C3.39005 12.6407 3.26025 11.9203 3.3839 11.2211C3.40801 11.2353 3.4506 11.2611 3.48087 11.2783L6.7501 13.1414C6.91582 13.237 7.12104 13.237 7.28727 13.1414L11.2784 10.8672V12.4417C11.2794 12.4579 11.2717 12.4736 11.2589 12.4837L7.95425 14.3665C6.48228 15.2029 4.60242 14.7057 3.75125 13.2553H3.75074ZM2.89033 6.21369C3.24948 5.59808 3.81641 5.12725 4.4916 4.88273C4.4916 4.91058 4.49006 4.95968 4.49006 4.99411V8.72069C4.48903 8.91003 4.59165 9.08571 4.75839 9.17937L8.7495 11.453L7.36782 12.2402C7.35397 12.2493 7.33653 12.2509 7.32113 12.2443L4.01599 10.36C2.54709 9.52059 2.04327 7.66615 2.88982 6.2142L2.89033 6.21369ZM14.2423 8.82043L10.2512 6.5463L11.6329 5.75957C11.6468 5.75046 11.6642 5.74894 11.6796 5.75552L14.9847 7.63831C16.4562 8.47718 16.9605 10.3347 16.1104 11.7866C15.7507 12.4012 15.1843 12.872 14.5096 13.1171V9.2791C14.5112 9.08976 14.4091 8.91459 14.2429 8.82043H14.2423ZM15.6173 6.77817C15.5932 6.76349 15.5506 6.73818 15.5204 6.72096L12.2511 4.85792C12.0854 4.76224 11.8802 4.76224 11.714 4.85792L7.72286 7.13205V5.55758C7.72184 5.54138 7.72953 5.52568 7.74236 5.51556L11.047 3.63429C12.519 2.79643 14.4009 3.2951 15.2495 4.74807C15.6081 5.36165 15.7379 6.08004 15.6163 6.77817H15.6173ZM6.97174 9.58437L5.58955 8.79714C5.57467 8.79005 5.56492 8.77588 5.56287 8.75968V4.9936C5.5639 3.31687 6.9425 1.95806 8.64176 1.95907C9.36056 1.95907 10.0563 2.20816 10.6088 2.66176C10.5837 2.67493 10.5406 2.69872 10.5119 2.71593L7.24264 4.57897C7.07538 4.67263 6.97277 4.8478 6.97379 5.03765L6.97174 9.58336V9.58437ZM7.72235 7.98763L9.50011 6.9746L11.2779 7.98712V10.0127L9.50011 11.0252L7.72235 10.0127V7.98763Z" fill="white"/>
</g>
</svg>
