<svg width="19" height="18" viewBox="0 0 19 18" fill="none" xmlns="http://www.w3.org/2000/svg">
<g id="Slack">
<path id="Vector" d="M9.875 10.875C9.875 11.7 10.55 12.375 11.375 12.375H15.125C15.95 12.375 16.625 11.7 16.625 10.875C16.625 10.05 15.95 9.375 15.125 9.375H11.375C10.55 9.375 9.875 10.05 9.875 10.875Z" fill="#F5BC00"/>
<path id="Vector_2" d="M9.875 13.125V14.625C9.875 15.45 10.55 16.125 11.375 16.125C12.2 16.125 12.875 15.45 12.875 14.625C12.875 13.8 12.2 13.125 11.375 13.125H9.875Z" fill="#F5BC00"/>
<path id="Vector_3" d="M7.625 9.375C6.8 9.375 6.125 10.05 6.125 10.875V14.625C6.125 15.45 6.8 16.125 7.625 16.125C8.45 16.125 9.125 15.45 9.125 14.625V10.875C9.125 10.05 8.45 9.375 7.625 9.375Z" fill="#F55376"/>
<path id="Vector_4" d="M5.375 9.375H3.875C3.05 9.375 2.375 10.05 2.375 10.875C2.375 11.7 3.05 12.375 3.875 12.375C4.7 12.375 5.375 11.7 5.375 10.875V9.375Z" fill="#F55376"/>
<path id="Vector_5" d="M9.125 7.125C9.125 6.3 8.45 5.625 7.625 5.625H3.875C3.05 5.625 2.375 6.3 2.375 7.125C2.375 7.95 3.05 8.625 3.875 8.625H7.625C8.45 8.625 9.125 7.95 9.125 7.125Z" fill="#00B3D7"/>
<path id="Vector_6" d="M9.125 4.875V3.375C9.125 2.55 8.45 1.875 7.625 1.875C6.8 1.875 6.125 2.55 6.125 3.375C6.125 4.2 6.8 4.875 7.625 4.875H9.125Z" fill="#00B3D7"/>
<path id="Vector_7" d="M11.375 8.625C12.2 8.625 12.875 7.95 12.875 7.125V3.375C12.875 2.55 12.2 1.875 11.375 1.875C10.55 1.875 9.875 2.55 9.875 3.375V7.125C9.875 7.95 10.55 8.625 11.375 8.625Z" fill="#00B569"/>
<path id="Vector_8" d="M13.625 8.625H15.125C15.95 8.625 16.625 7.95 16.625 7.125C16.625 6.3 15.95 5.625 15.125 5.625C14.3 5.625 13.625 6.3 13.625 7.125V8.625Z" fill="#00B569"/>
</g>
</svg>
