<svg width="13" height="14" viewBox="0 0 13 14" fill="none" xmlns="http://www.w3.org/2000/svg">
<g id="Tavily" clipPath="url(#clip0_2002_1744)">
<path id="Vector" d="M5.13182 0.989217L6.60818 3.32642C6.8453 3.70176 6.5756 4.19115 6.13163 4.19115H5.52803V7.69014H4.65527V0.726562C4.83824 0.726562 5.02124 0.814115 5.13182 0.989217Z" fill="#8FBCFA"/>
<path id="Vector_2" d="M2.7013 3.32642L4.1777 0.989217C4.28828 0.814115 4.47128 0.726562 4.65428 0.726562V7.69014C4.64159 7.68945 4.62887 7.68897 4.61609 7.68861C4.60379 7.68831 4.59146 7.68813 4.57907 7.68813C4.28207 7.68813 4.00697 7.78164 3.78152 7.94085V4.19115H3.17791C2.73394 4.19115 2.46421 3.70176 2.7013 3.32642Z" fill="#468BFF"/>
<path id="Vector_3" d="M9.28354 10.0002H5.60938C5.82334 9.76857 5.95914 9.46371 5.97495 9.12744H12.7481C12.7481 9.31044 12.6606 9.49344 12.4855 9.60402L10.1483 11.0804C9.77293 11.3175 9.28354 11.0478 9.28354 10.6038V10.0002Z" fill="#FDBB11"/>
<path id="Vector_4" d="M10.1477 7.17445L12.4849 8.65081C12.66 8.76142 12.7475 8.94442 12.7475 9.12739H5.97438C5.97543 9.10546 5.97594 9.08341 5.97594 9.06121C5.97594 8.76025 5.87991 8.48173 5.7168 8.25463H9.28296V7.65103C9.28296 7.20706 9.77235 6.93736 10.1477 7.17445Z" fill="#F6D785"/>
<path id="Vector_5" d="M2.6714 10.975L0.539062 13.1073C0.668452 13.2367 0.859753 13.3042 1.06178 13.2586L3.75839 12.6499C4.19144 12.5521 4.34678 12.0153 4.03286 11.7014L3.60605 11.2746L5.21276 9.6679C5.54132 9.33931 5.54132 8.8066 5.21276 8.47804L5.19053 8.45581L2.6714 10.975Z" fill="#FF9A9D"/>
<path id="Vector_6" d="M2.37224 10.0406L3.97893 8.43392C4.30752 8.10536 4.84023 8.10536 5.16879 8.43392L5.19102 8.45615L2.67188 10.9753L0.539536 13.1076C0.410146 12.9782 0.342663 12.7869 0.388268 12.5849L0.996976 9.88829C1.09473 9.45524 1.63151 9.2999 1.94543 9.61382L2.37224 10.0406Z" fill="#FE363B"/>
</g>
<defs>
<clipPath id="clip0_2002_1744">
<rect width="12.6" height="12.6" fill="white" transform="translate(0.199219 0.700195)"/>
</clipPath>
</defs>
</svg>
