<svg width="18" height="18" viewBox="0 0 18 18" fill="none" xmlns="http://www.w3.org/2000/svg">
<path d="M6.34592 8.09729L6.20117 5.14941L9.0163 6.19716V8.92079L6.34592 8.09729ZM10.6314 11.0887V13.8074L13.3213 14.5855V11.9512L10.6314 11.0887Z" fill="#EF5350"/>
<path d="M9.01666 13.4906L7.36328 11.0891L9.01666 8.92087L10.6318 11.0891L9.01666 13.4906ZM7.36328 4.017L8.99753 1.875L10.6318 4.11225L9.01666 6.19687L7.36328 4.017ZM11.7208 8.09738L13.3715 5.93738L15.9748 6.74662L14.4065 8.9205L11.7208 8.09738Z" fill="#EF9A9A"/>
<path d="M9.01713 8.92029L11.7213 8.09717L13.5723 10.3445L10.6323 11.0885L9.01713 8.92029ZM6.34676 8.09717L4.64538 5.87342L1.94238 6.76179L3.56051 8.92029L6.34676 8.09717ZM9.01713 6.19667L11.7936 5.11179L13.3221 3.12842L10.6323 4.11204L9.01713 6.19667Z" fill="#D32F2F"/>
<path d="M9.01688 8.92045V6.19682L11.7934 5.11157L11.721 8.09695L9.01688 8.92045ZM7.3635 11.0887V13.8236L4.64513 14.5856V11.9669L7.3635 11.0887ZM3.56025 8.92045L6.3465 8.09732L4.41525 10.2041L1.875 11.0887L3.56025 8.92045Z" fill="#B71C1C"/>
<path d="M6.34662 8.09717L4.64525 5.87342L4.57812 3.12842L6.20187 5.14892L6.34662 8.09717ZM7.36362 11.0885V13.8234L9.017 16.1248V13.4904L7.36362 11.0885ZM10.6321 11.0885L13.5717 10.3445L16.1251 11.0885L13.322 11.951L10.6321 11.0885Z" fill="#660E0E"/>
<path d="M11.7211 8.09717L13.3719 5.93717L13.322 3.12842L11.7935 5.11179L11.7211 8.09717ZM6.20187 5.14892L9.017 6.19667L7.36362 4.01679L4.57812 3.12842L6.20187 5.14892ZM10.6321 11.0885V13.8073L9.017 16.1248V13.4904L10.6321 11.0885ZM11.7211 8.09717L13.5717 10.3445L16.1251 11.0885L14.4069 8.92029L11.7211 8.09717Z" fill="#F44336"/>
<path d="M4.64512 11.967L7.3635 11.0887L4.41525 10.2041L1.875 11.0887L4.64512 11.967Z" fill="#8C1313"/>
<path d="M9.01727 8.92029L7.36389 11.0885L4.41602 10.2039L6.34727 8.09717L9.01727 8.92029Z" fill="#FFCDD2"/>
</svg>
