<svg width="20" height="20" viewBox="0 0 20 20" fill="none" xmlns="http://www.w3.org/2000/svg">
<path d="M20 10C20 15.5228 15.5228 20 10 20C4.47715 20 0 15.5228 0 10C0 4.47715 4.47715 0 10 0C15.5228 0 20 4.47715 20 10Z" fill="white"/>
<path d="M14.7073 5.63106C13.846 5.24366 12.9134 4.96249 11.9419 4.80003C11.9334 4.79977 11.9249 4.80131 11.9171 4.80455C11.9093 4.80779 11.9023 4.81264 11.8966 4.81877C11.78 5.02497 11.644 5.29365 11.5533 5.49985C10.5229 5.34988 9.47506 5.34988 8.44467 5.49985C8.354 5.2874 8.218 5.02497 8.09495 4.81877C8.08847 4.80628 8.06904 4.80003 8.04961 4.80003C7.07816 4.96249 6.15203 5.24366 5.2842 5.63106C5.27773 5.63106 5.27125 5.63731 5.26477 5.64356C3.5032 8.18664 3.01747 10.661 3.2571 13.1104C3.2571 13.1229 3.26357 13.1353 3.27653 13.1416C4.44227 13.9664 5.56269 14.4662 6.67014 14.7974C6.68957 14.8037 6.709 14.7974 6.71548 14.7849C6.97453 14.4413 7.20768 14.0788 7.40845 13.6977C7.4214 13.6727 7.40845 13.6477 7.38254 13.6415C7.01339 13.504 6.66367 13.3415 6.32042 13.1541C6.29452 13.1416 6.29451 13.1041 6.31394 13.0854C6.38518 13.0354 6.45642 12.9791 6.52766 12.9292C6.54062 12.9167 6.56005 12.9167 6.573 12.9229C8.80087 13.9039 11.2036 13.9039 13.4056 12.9229C13.4185 12.9167 13.4379 12.9167 13.4509 12.9292C13.5221 12.9854 13.5934 13.0354 13.6646 13.0916C13.6905 13.1104 13.6905 13.1478 13.6581 13.1603C13.3214 13.354 12.9652 13.5102 12.596 13.6477C12.5701 13.654 12.5636 13.6852 12.5701 13.7039C12.7774 14.0851 13.0105 14.4475 13.2631 14.7912C13.2825 14.7974 13.3019 14.8037 13.3214 14.7974C14.4353 14.4662 15.5557 13.9664 16.7215 13.1416C16.7344 13.1353 16.7409 13.1229 16.7409 13.1104C17.0259 10.2798 16.2681 7.82424 14.7332 5.64356C14.7267 5.63731 14.7203 5.63106 14.7073 5.63106ZM7.74522 11.617C7.07816 11.617 6.52119 11.0234 6.52119 10.2923C6.52119 9.56128 7.0652 8.96769 7.74522 8.96769C8.43172 8.96769 8.97573 9.56753 8.96926 10.2923C8.96926 11.0234 8.42524 11.617 7.74522 11.617ZM12.2592 11.617C11.5922 11.617 11.0352 11.0234 11.0352 10.2923C11.0352 9.56128 11.5792 8.96769 12.2592 8.96769C12.9457 8.96769 13.4898 9.56753 13.4833 10.2923C13.4833 11.0234 12.9457 11.617 12.2592 11.617Z" fill="black"/>
</svg>
