<svg width="16" height="16" viewBox="0 0 16 16" fill="none" xmlns="http://www.w3.org/2000/svg">
<g clipPath="url(#clip0_519_1660)">
<path d="M8.66653 4.66666L5.79987 1.79999C5.49879 1.50036 5.0913 1.33215 4.66653 1.33215C4.24177 1.33215 3.83428 1.50036 3.5332 1.79999L1.79987 3.53332C1.50024 3.83441 1.33203 4.24189 1.33203 4.66666C1.33203 5.09142 1.50024 5.49891 1.79987 5.79999L4.66653 8.66666" stroke="#52525B" strokeWidth="1.25" strokeLinecap="round" strokeLinejoin="round"/>
<path d="M5.3335 4.00002L6.66683 2.66669" stroke="#52525B" strokeWidth="1.25" strokeLinecap="round" strokeLinejoin="round"/>
<path d="M12 10.6666L13.3333 9.33331" stroke="#52525B" strokeWidth="1.25" strokeLinecap="round" strokeLinejoin="round"/>
<path d="M11.3335 7.33331L14.2002 10.2C14.8268 10.8266 14.8268 11.84 14.2002 12.4666L12.4668 14.2C11.8402 14.8266 10.8268 14.8266 10.2002 14.2L7.3335 11.3333" stroke="#52525B" strokeWidth="1.25" strokeLinecap="round" strokeLinejoin="round"/>
<path d="M14.1161 4.54132C14.4686 4.18894 14.6666 3.71097 14.6667 3.21256C14.6668 2.71415 14.4688 2.23613 14.1165 1.88366C13.7641 1.53118 13.2861 1.33313 12.7877 1.33307C12.2893 1.33301 11.8113 1.53094 11.4588 1.88332L2.56145 10.7827C2.40667 10.937 2.29219 11.127 2.22812 11.336L1.34745 14.2373C1.33022 14.295 1.32892 14.3562 1.34369 14.4146C1.35845 14.4729 1.38873 14.5261 1.43132 14.5687C1.4739 14.6112 1.5272 14.6414 1.58556 14.656C1.64392 14.6707 1.70516 14.6693 1.76279 14.652L4.66479 13.772C4.87357 13.7085 5.06357 13.5947 5.21812 13.4407L14.1161 4.54132Z" stroke="#52525B" strokeWidth="1.25" strokeLinecap="round" strokeLinejoin="round"/>
<path d="M10 3.33331L12.6667 5.99998" stroke="#52525B" strokeWidth="1.25" strokeLinecap="round" strokeLinejoin="round"/>
</g>
<defs>
<clipPath id="clip0_519_1660">
<rect width="16" height="16" fill="white"/>
</clipPath>
</defs>
</svg>
