<?xml version="1.0" encoding="utf-8"?>
<svg xmlns="http://www.w3.org/2000/svg">
  <defs>
    <symbol id="facebook" viewBox="0 0 32 32">
      <path
        d="M32.0005 0.825439H0V32.4763H17.0952V20.2602H12.9127V15.4459H17.0728V11.931C17.0728 7.8386 19.5935 5.61194 23.2819 5.61194C24.5349 5.61562 25.7867 5.68606 27.0321 5.82295V10.093H24.4833C22.4791 10.093 22.0917 11.0315 22.0917 12.4141V15.4681H26.8917L26.2686 20.2602H22.0917V32.4763H32.0005V0.825439Z"
      />
    </symbol>
    <symbol id="twitter" viewBox="0 0 32 32">
      <path
        fill-rule="evenodd"
        clip-rule="evenodd"
        d="M31.65 0.825439H0V32.4754H31.65V0.825439ZM26.283 5.82544L18.093 15.3749H18.0925L27 28.378H20.449L14.4507 19.6217L6.94088 28.378H5L13.589 18.3639L5 5.82544H11.551L17.2308 14.1171L24.3422 5.82544H26.283ZM14.5644 17.2258L15.4347 18.4744V18.4748L21.3621 26.9791H24.3431L17.0795 16.5573L16.2092 15.3087L10.6213 7.29099H7.6402L14.5644 17.2258Z"
      />
    </symbol>
    <symbol id="linkedin" viewBox="0 0 32 32">
      <path
        d="M0 0.825472V32.4763C10.6667 32.4763 21.3333 32.4763 32 32.4763V0.825439C21.3333 0.825882 10.6667 0.825591 0 0.825472ZM9.48148 27.7873H4.74074V12.6652H9.48148V27.7873ZM7.11111 10.6138C5.57037 10.6138 4.38519 9.38293 4.38519 7.91761C4.38519 6.39369 5.62963 5.22143 7.11111 5.22143C8.65185 5.22143 9.83704 6.4523 9.83704 7.91761C9.8963 9.38293 8.65185 10.6138 7.11111 10.6138ZM27.2593 27.7873H22.5185V20.4607C22.5185 18.7023 22.4593 16.4751 20.0296 16.4751C17.5407 16.4751 17.1852 18.4093 17.1852 20.3435V27.7873H12.4444V12.6652H17.0074V14.7167H17.0667C17.7185 13.5444 19.2593 12.255 21.5704 12.255C26.3704 12.255 27.2593 15.3614 27.2593 19.4643V27.7873Z"
      />
    </symbol>
    <symbol id="github" viewBox="0 0 32 32">
      <path
        fill-rule="evenodd"
        clip-rule="evenodd"
        d="M32 0.825439H0V32.4754H32V0.825439ZM4 16.6304C4 10.1123 9.3578 4.82544 15.9633 4.82544C22.5688 4.82544 27.9266 10.1123 28 16.6304C28 21.8449 24.6239 26.2628 19.8532 27.8561C19.2661 27.9285 19.0459 27.5664 19.0459 27.2767V24.0176C19.0459 22.9313 18.6789 22.207 18.2385 21.8449C20.8807 21.5552 23.6697 20.6137 23.6697 16.0511C23.6697 14.7474 23.156 13.6611 22.422 12.8644C22.4278 12.8417 22.4358 12.8132 22.4453 12.7792C22.5577 12.3794 22.884 11.2186 22.2752 9.75023C22.2752 9.75023 21.2477 9.46054 18.9725 10.9814C18.0183 10.7642 16.9908 10.6193 15.9633 10.6193C14.9358 10.6193 13.9083 10.6917 12.9541 10.9814C10.6789 9.46054 9.65138 9.75023 9.65138 9.75023C9.00278 11.3147 9.41561 12.53 9.50025 12.7792C9.50181 12.7838 9.50326 12.7881 9.50459 12.792C8.69725 13.6611 8.25688 14.675 8.25688 15.9786C8.25688 20.5413 11.0459 21.5552 13.6881 21.8449C13.3945 22.1346 13.0275 22.6416 12.9541 23.4382C12.2936 23.7279 10.6055 24.2349 9.50459 22.4243C9.50459 22.4243 8.84404 21.2655 7.66972 21.1931C7.66972 21.1931 6.49541 21.1931 7.59633 21.9174C7.59633 21.9174 8.40367 22.2795 8.91743 23.6555C8.91743 23.6555 9.65138 25.9731 12.9541 25.2488V27.2767C12.9541 27.5664 12.7339 27.9285 12.1468 27.8561C7.44954 26.2628 4 21.8449 4 16.6304Z"
      />
    </symbol>
    <symbol id="medium" viewBox="0 0 32 32">
      <path
        fill-rule="evenodd"
        clip-rule="evenodd"
        d="M32 0.825439H0V32.4754H32V0.825439ZM11.4868 23.8254C15.0692 23.8254 17.9734 20.9153 17.9734 17.3255C17.9734 13.7357 15.0694 10.8254 11.4868 10.8254C7.90423 10.8254 5 13.7364 5 17.3255C5 20.9147 7.90445 23.8254 11.4868 23.8254ZM21.846 23.4449C23.6373 23.4449 25.0894 20.7046 25.0894 17.3255H25.0892C25.0892 13.9456 23.637 11.2062 21.8458 11.2062C20.0545 11.2062 18.6026 13.9465 18.6026 17.3255C18.6026 20.7046 20.0547 23.4449 21.846 23.4449ZM26.8593 22.8075C27.4894 22.8075 28 20.3523 28 17.3255C28 14.2979 27.4891 11.8436 26.8593 11.8436C26.2294 11.8436 25.7188 14.2981 25.7188 17.3255C25.7188 20.353 26.2292 22.8075 26.8593 22.8075Z"
      />
    </symbol>
  </defs>
</svg>
