<svg width="19" height="18" viewBox="0 0 19 18" fill="none" xmlns="http://www.w3.org/2000/svg">
<g id="Airbyte">
<path id="Vector" fillRule="evenodd" clipRule="evenodd" d="M7.1895 3.13815C8.83395 1.27758 11.5574 0.731772 13.7962 1.80573C16.7707 3.23278 17.856 6.86802 16.2365 9.67216L12.5931 15.9735C12.3896 16.3255 12.0546 16.5824 11.6617 16.6877C11.2688 16.793 10.8502 16.738 10.4977 16.5351L14.9086 8.9048C16.0836 6.86961 15.2976 4.23158 13.1411 3.19292C11.5228 2.41363 9.54479 2.80294 8.34943 4.14313C7.68998 4.87888 7.31979 5.82878 7.30745 6.81668C7.2951 7.80459 7.64137 8.76345 8.28224 9.5155C8.39742 9.65033 8.52126 9.77758 8.65315 9.89631L6.0782 14.3587C5.9775 14.5332 5.84343 14.686 5.68363 14.8087C5.52385 14.9313 5.34146 15.0213 5.14691 15.0734C4.95234 15.1256 4.74943 15.1389 4.54972 15.1126C4.35001 15.0863 4.15744 15.021 3.98298 14.9203L6.77844 10.0757C6.3769 9.49677 6.08854 8.84714 5.92857 8.16102L4.21555 11.1356C4.01193 11.4878 3.6769 11.7446 3.28403 11.8499C2.89115 11.9553 2.47254 11.9004 2.12012 11.6973L6.54999 4.02421C6.73437 3.70912 6.94852 3.4124 7.1895 3.13815ZM12.3024 5.5805C13.3693 6.19665 13.7377 7.56688 13.1204 8.63326L8.8725 15.9725C8.66894 16.3245 8.33379 16.5815 7.94091 16.6868C7.54803 16.792 7.12948 16.7371 6.77706 16.5341L10.7214 9.70126C10.4049 9.6347 10.1067 9.50018 9.84727 9.30698C9.58783 9.11395 9.37343 8.86681 9.21879 8.58275C9.06414 8.29869 8.97296 7.98447 8.9516 7.66177C8.93024 7.33906 8.97915 7.01556 9.0951 6.7136C9.21089 6.41165 9.39092 6.13844 9.62266 5.91284C9.8544 5.68723 10.1323 5.5146 10.4372 5.40686C10.7422 5.29913 11.0669 5.25887 11.3889 5.28884C11.7109 5.31882 12.0227 5.41833 12.3024 5.5805ZM10.7573 6.95978C10.6843 7.01582 10.623 7.08571 10.577 7.16543C10.5077 7.2855 10.4753 7.42341 10.4844 7.56174C10.4936 7.70005 10.5434 7.83259 10.6278 7.94256C10.7123 8.05252 10.8273 8.13499 10.9586 8.17954C11.0899 8.2241 11.2315 8.22872 11.3654 8.19283C11.4993 8.15694 11.6194 8.08216 11.7109 7.97793C11.8022 7.87371 11.8608 7.74473 11.8789 7.60728C11.8968 7.46985 11.8738 7.33013 11.8125 7.20581C11.7512 7.08147 11.6544 6.97811 11.5343 6.90879C11.4547 6.86277 11.3666 6.83289 11.2755 6.82088C11.1841 6.80887 11.0914 6.81495 11.0025 6.83879C10.9137 6.86263 10.8303 6.90373 10.7573 6.95978Z" fill="#6895F8"/>
</g>
</svg>
