<svg width="18" height="18" viewBox="0 0 18 18" fill="none" xmlns="http://www.w3.org/2000/svg">
<g id="Azure">
<path id="Vector" d="M6.61231 2.25H10.8517L6.45069 15.2899C6.35806 15.5647 6.10044 15.7496 5.81019 15.7496H2.51094C2.13819 15.7496 1.83594 15.4474 1.83594 15.0746C1.83594 15.0011 1.84794 14.9284 1.87119 14.8586L5.97181 2.71013C6.06444 2.43525 6.32206 2.25 6.61231 2.25Z" fill="url(#paint0_linear_2261_2537)"/>
<path id="Vector_2" d="M12.7735 10.9966H6.05088C5.87913 10.9962 5.73963 11.1357 5.73926 11.3075C5.73926 11.3941 5.77488 11.4766 5.83826 11.5355L10.1583 15.5675C10.2839 15.6848 10.4496 15.7501 10.6218 15.7501H14.4284L12.7735 10.9966Z" fill="#0078D4"/>
<path id="Vector_3" d="M6.61251 2.25C6.31889 2.24888 6.05901 2.439 5.97051 2.71875L1.87664 14.8481C1.75101 15.1984 1.93326 15.5846 2.28351 15.7103C2.35701 15.7365 2.43464 15.75 2.51301 15.75H5.89776C6.15426 15.7043 6.36651 15.5239 6.45314 15.2779L7.26951 12.8719L10.1855 15.5918C10.3078 15.693 10.4611 15.7489 10.6198 15.75H14.4125L12.749 10.9965L7.89989 10.9976L10.8673 2.25H6.61251Z" fill="url(#paint1_linear_2261_2537)"/>
<path id="Vector_4" d="M12.0278 2.70937C11.9352 2.43487 11.678 2.25 11.3881 2.25H6.66309C6.95259 2.25 7.21021 2.43487 7.30246 2.709L11.4031 14.8586C11.5223 15.2119 11.3326 15.5947 10.9793 15.714C10.91 15.738 10.8372 15.75 10.7637 15.75H15.4887C15.8615 15.75 16.1637 15.4478 16.1637 15.0746C16.1637 15.0011 16.1517 14.9284 16.1281 14.859L12.0278 2.70937Z" fill="url(#paint2_linear_2261_2537)"/>
</g>
<defs>
<linearGradient id="paint0_linear_2261_2537" x1="8.15757" y1="3.25059" x2="3.75483" y2="16.2572" gradientUnits="userSpaceOnUse">
<stop stop-color="#114A8B"/>
<stop offset="1" stop-color="#0669BC"/>
</linearGradient>
<linearGradient id="paint1_linear_2261_2537" x1="9.53296" y1="9.31154" x2="8.51461" y2="9.65607" gradientUnits="userSpaceOnUse">
<stop stop-opacity="0.3"/>
<stop offset="0.071" stop-opacity="0.2"/>
<stop offset="0.321" stop-opacity="0.1"/>
<stop offset="0.623" stop-opacity="0.05"/>
<stop offset="1" stop-opacity="0"/>
</linearGradient>
<linearGradient id="paint2_linear_2261_2537" x1="9.00477" y1="2.85919" x2="13.8376" y2="15.7352" gradientUnits="userSpaceOnUse">
<stop stop-color="#3CCBF4"/>
<stop offset="1" stop-color="#2892DF"/>
</linearGradient>
</defs>
</svg>
