<svg width="17" height="18" viewBox="0 0 17 18" fill="none" xmlns="http://www.w3.org/2000/svg">
<g id="Group 2">
<path id="Vector" fillRule="evenodd" clipRule="evenodd" d="M5.64839 10.5445C6.08438 10.5445 6.95166 10.5206 8.15045 10.027C9.54742 9.45183 12.3267 8.40775 14.3317 7.3353C15.7339 6.58521 16.3486 5.59316 16.3486 4.25719C16.3486 2.40302 14.8455 0.899902 12.9913 0.899902H5.22268C2.5594 0.899902 0.400391 3.05891 0.400391 5.72219C0.400391 8.38547 2.42186 10.5445 5.64839 10.5445Z" fill="#39594D"/>
<path id="Vector_2" fillRule="evenodd" clipRule="evenodd" d="M6.96191 13.8654C6.96191 12.5599 7.74785 11.3829 8.95361 10.8825L11.4001 9.86711C13.8748 8.84008 16.5986 10.6586 16.5986 13.338C16.5986 15.4138 14.9155 17.0964 12.8396 17.0958L10.1908 17.0952C8.40738 17.0947 6.96191 15.6489 6.96191 13.8654Z" fill="#D18EE2"/>
<path id="Vector_3" d="M3.1803 11.1802C1.64502 11.1802 0.400391 12.4247 0.400391 13.96V14.3201C0.400391 15.8553 1.64497 17.0999 3.18025 17.0999C4.71553 17.0999 5.96016 15.8553 5.96016 14.3201V13.96C5.96016 12.4247 4.71558 11.1802 3.1803 11.1802Z" fill="#FF7759"/>
</g>
</svg>
