<svg width="19" height="18" viewBox="0 0 19 18" fill="none" xmlns="http://www.w3.org/2000/svg">
<g id="Google Cloud">
<path id="Vector" d="M14.8224 6.88478C14.5333 5.85241 13.9528 4.94341 13.1735 4.24854L11.4492 5.97278C12.0781 6.48466 12.5023 7.23804 12.5795 8.09079V8.65629C12.5893 8.65629 12.5982 8.65329 12.608 8.65329C13.4787 8.65329 14.1875 9.36204 14.1875 10.2328C14.1875 11.1035 13.4787 11.8127 12.608 11.8127C12.5982 11.8127 12.5893 11.81 12.5795 11.8097V11.8127H10.0797H9.5V14.2502H12.5795V14.2487C12.5893 14.2487 12.5982 14.2502 12.608 14.2502C14.8231 14.2502 16.625 12.4479 16.625 10.2332C16.625 8.83629 15.9073 7.60478 14.8224 6.88478Z" fill="#1976D2"/>
<path id="Vector_2" opacity="0.5" d="M7.83503 9.59616L9.60503 7.82616C9.60353 7.82429 9.60203 7.82279 9.60091 7.82129L7.83203 9.59016C7.83278 9.59204 7.83391 9.59391 7.83503 9.59616Z" fill="#FFE082"/>
<path id="Vector_3" opacity="0.5" d="M7.83503 9.59616L9.60503 7.82616C9.60353 7.82429 9.60203 7.82279 9.60091 7.82129L7.83203 9.59016C7.83278 9.59204 7.83391 9.59391 7.83503 9.59616Z" fill="#90CAF9"/>
<path id="Vector_4" d="M9.5 2.84106C6.45012 2.84106 3.96875 5.32244 3.96875 8.37231C3.96875 8.45969 3.97775 8.54481 3.98187 8.63106H6.41937C6.41225 8.54556 6.40625 8.45969 6.40625 8.37231C6.40625 6.66644 7.79412 5.27856 9.5 5.27856C10.2384 5.27856 10.9167 5.53956 11.4492 5.97269L13.1735 4.24844C12.1955 3.37619 10.9104 2.84106 9.5 2.84106Z" fill="#FF3D00"/>
<path id="Vector_5" opacity="0.5" d="M6.39142 11.8125H6.39067C6.16155 11.8125 5.94517 11.7611 5.74867 11.6726L3.98242 13.4389C4.6548 13.9455 5.4873 14.25 6.39067 14.25H6.39142H9.49942V11.8125H6.39142Z" fill="#90CAF9"/>
<path id="Vector_6" d="M6.39142 11.8125H6.39067C6.16155 11.8125 5.94517 11.7611 5.74867 11.6726L3.98242 13.4389C4.6548 13.9455 5.4873 14.25 6.39067 14.25H6.39142H9.49942V11.8125H6.39142Z" fill="#4CAF50"/>
<path id="Vector_7" d="M4.8125 10.2338C4.8125 9.36378 5.52125 8.65503 6.39125 8.65503C7.02987 8.65503 7.583 9.03865 7.83162 9.59028L9.6005 7.8214C8.86512 6.84565 7.70112 6.21753 6.39087 6.21753C4.17875 6.21753 2.375 8.01753 2.375 10.2338C2.375 11.5429 3.00913 12.705 3.983 13.4389L5.74925 11.6727C5.19875 11.4259 4.8125 10.8747 4.8125 10.2338Z" fill="#FFC107"/>
</g>
</svg>
