<svg width="17" height="16" viewBox="0 0 17 16" fill="none" xmlns="http://www.w3.org/2000/svg">
<g id="mistral-ai_wordmark 1" clipPath="url(#clip0_2002_467)">
<path id="Vector" d="M12.8545 0.799805H15.5422V3.48749H12.8545V0.799805Z" fill="#F7D046"/>
<path id="Vector_2" d="M0.759766 0.799805H3.44745V3.48749H0.759766V0.799805ZM0.759766 3.48749H3.44745V6.17518H0.759766V3.48749ZM0.759766 6.17518H3.44745V8.86287H0.759766V6.17518ZM0.759766 8.86287H3.44745V11.5506H0.759766V8.86287ZM0.759766 11.5506H3.44745V14.2382H0.759766V11.5506Z" fill="black"/>
<path id="Vector_3" d="M2.10352 0.799805H4.7912V3.48749H2.10352V0.799805Z" fill="#F7D046"/>
<path id="Vector_4" d="M12.8543 3.48755H15.5419V6.17524H12.8543V3.48755ZM2.10352 3.48755H4.7912V6.17524H2.10352V3.48755Z" fill="#F2A73B"/>
<path id="Vector_5" d="M8.82324 3.48755H11.5109V6.17524H8.82324V3.48755Z" fill="black"/>
<path id="Vector_6" d="M10.1664 3.48755H12.8541V6.17524H10.1664V3.48755ZM4.79102 3.48755H7.4787V6.17524H4.79102V3.48755Z" fill="#F2A73B"/>
<path id="Vector_7" d="M7.4787 6.17529H10.1664V8.86298H7.4787V6.17529ZM10.1664 6.17529H12.8541V8.86298H10.1664V6.17529ZM4.79102 6.17529H7.4787V8.86298H4.79102V6.17529Z" fill="#EE792F"/>
<path id="Vector_8" d="M6.13477 8.86304H8.82245V11.5507H6.13477V8.86304Z" fill="black"/>
<path id="Vector_9" d="M7.47852 8.86304H10.1662V11.5507H7.47852V8.86304Z" fill="#EB5829"/>
<path id="Vector_10" d="M12.8543 6.17529H15.5419V8.86298H12.8543V6.17529ZM2.10352 6.17529H4.7912V8.86298H2.10352V6.17529Z" fill="#EE792F"/>
<path id="Vector_11" d="M11.5098 8.86304H14.1975V11.5507H11.5098V8.86304Z" fill="black"/>
<path id="Vector_12" d="M12.8545 8.86304H15.5422V11.5507H12.8545V8.86304Z" fill="#EB5829"/>
<path id="Vector_13" d="M11.5098 11.5505H14.1975V14.2382H11.5098V11.5505Z" fill="black"/>
<path id="Vector_14" d="M2.10352 8.86304H4.7912V11.5507H2.10352V8.86304Z" fill="#EB5829"/>
<path id="Vector_15" d="M12.8543 11.5505H15.5419V14.2382H12.8543V11.5505ZM2.10352 11.5505H4.7912V14.2382H2.10352V11.5505Z" fill="#EA3326"/>
</g>
<defs>
<clipPath id="clip0_2002_467">
<rect width="15.48" height="14.3431" fill="white" transform="translate(0.759766 0.799805)"/>
</clipPath>
</defs>
</svg>
