<svg width="16" height="18" viewBox="0 0 16 18" fill="none" xmlns="http://www.w3.org/2000/svg">
<g id="Group">
<path id="Vector" d="M6.81772 15.7806C7.38089 15.7806 7.83743 16.2371 7.83743 16.8003C7.83743 17.3635 7.38089 17.82 6.81772 17.82C6.25455 17.82 5.79801 17.3635 5.79801 16.8003C5.79801 16.2371 6.25455 15.7806 6.81772 15.7806ZM12.4751 13.92L13.4828 14.2186L12.6829 16.9183C12.613 17.1542 12.3888 17.31 12.1433 17.2933L11.8962 17.2763L11.8902 17.2813L9.32312 17.1012L9.39455 16.0526L11.1193 16.1697L9.99014 14.5408L10.8538 13.942L11.9845 15.5728L12.4751 13.92ZM1.50736 12.0538L2.55573 12.128L2.43293 13.8525L4.05878 12.7219L4.65896 13.5847L3.03099 14.7164L4.69268 15.206L4.39566 16.2142L1.68325 15.4151C1.44644 15.3453 1.29013 15.1201 1.30757 14.8739L1.50736 12.0538ZM8.27633 10.5853L10.1684 12.8697L9.31568 13.576L8.18962 12.2165L7.82454 14.3068L6.73378 14.1161L7.09921 12.0226L5.58324 12.9164L5.02119 11.9624L7.56892 10.4615C7.80315 10.3235 8.10291 10.376 8.27633 10.5853ZM13.5701 9.0527L14.5153 8.53845L15.8922 11.0692C16.0128 11.2909 15.9631 11.5667 15.7727 11.7323L15.5778 11.9006L13.59 13.6306L12.8839 12.8187L14.2203 11.656L12.2297 11.2974L12.4207 10.2385L14.4099 10.5969L13.5701 9.0527ZM2.42339 6.4068L3.1354 7.21355L1.81734 8.37604L3.81173 8.72423L3.62687 9.78425L1.63029 9.43579L2.48789 10.9862L1.54634 11.507L0.147334 8.97807C0.0251873 8.75727 0.0729118 8.48124 0.262104 8.31427L2.42339 6.4068ZM9.16479 5.57449L11.0505 7.85274L10.1975 8.55878L9.0717 7.19868L8.70662 9.28954L7.61586 9.09887L7.98004 7.0135L6.46988 7.89876L5.90997 6.94346L8.22966 5.5834L8.23194 5.57457L8.24217 5.5759L8.45833 5.44986C8.69253 5.31259 8.9917 5.36537 9.16479 5.57449ZM11.5948 4.45405L12.0072 3.46021L14.6749 4.56727C14.9078 4.6639 15.0423 4.90925 14.9986 5.15753L14.9541 5.40448L14.4986 7.99581L13.4389 7.80914L13.7442 6.07449L11.9744 7.05267L11.4543 6.1107L13.2275 5.13173L11.5948 4.45405ZM6.51278 2.49559L6.55865 3.57063L4.79641 3.64595L6.12552 5.16485L5.31574 5.87341L3.98439 4.35224L3.67422 6.0889L2.61501 5.89945L3.12262 3.06141C3.16699 2.81338 3.37755 2.62936 3.62929 2.61862L3.87867 2.60746L3.88426 2.60341L6.51278 2.49559ZM10.1176 0.202932L11.9947 2.49557L11.138 3.19706L10.0239 1.83611L9.64806 3.92421L8.55827 3.7281L8.9347 1.6353L7.41352 2.52467L6.85487 1.56863L9.40986 0.0756587C9.64496 -0.0617191 9.94505 -0.0077501 10.1176 0.202932Z" fill="white"/>
</g>
</svg>
