<svg width="19" height="18" viewBox="0 0 19 18" fill="none" xmlns="http://www.w3.org/2000/svg">
<g id="Group 1">
<path id="Vector" d="M10.8963 17.527C10.4457 18.0945 9.53194 17.7835 9.52108 17.0589L9.3623 6.46045H16.4887C17.7795 6.46045 18.4994 7.95131 17.6967 8.96222L10.8963 17.527Z" fill="url(#paint0_linear_2002_3236)"/>
<path id="Vector_2" d="M10.8963 17.527C10.4457 18.0945 9.53194 17.7835 9.52108 17.0589L9.3623 6.46045H16.4887C17.7795 6.46045 18.4994 7.95131 17.6967 8.96222L10.8963 17.527Z" fill="url(#paint1_linear_2002_3236)" fill-opacity="0.2"/>
<path id="Vector_3" d="M7.9982 0.473034C8.44884 -0.094528 9.36257 0.216455 9.37343 0.941087L9.44301 11.5395H2.4058C1.11498 11.5395 0.395067 10.0487 1.19774 9.03776L7.9982 0.473034Z" fill="#3ECF8E"/>
</g>
<defs>
<linearGradient id="paint0_linear_2002_3236" x1="9.3623" y1="8.8104" x2="15.696" y2="11.4667" gradientUnits="userSpaceOnUse">
<stop stopColor="#249361"/>
<stop offset="1" stopColor="#3ECF8E"/>
</linearGradient>
<linearGradient id="paint1_linear_2002_3236" x1="6.55428" y1="4.96571" x2="9.44277" y2="10.4031" gradientUnits="userSpaceOnUse">
<stop/>
<stop offset="1" stopOpacity="0"/>
</linearGradient>
</defs>
</svg>
