<svg width="18" height="18" viewBox="0 0 18 18" fill="none" xmlns="http://www.w3.org/2000/svg">
<mask id="mask0_2002_41" style="mask-type:luminance" maskUnits="userSpaceOnUse" x="2" y="0" width="14" height="18">
<path d="M2.52051 0.359863H15.4805V17.6399H2.52051V0.359863Z" fill="white"/>
</mask>
<g mask="url(#mask0_2002_41)">
<path d="M2.53516 15.479C5.39459 18.3384 10.0307 18.3384 12.8901 15.479C15.7495 12.6195 15.7495 7.98346 12.8901 5.12402L11.5957 6.41838C13.7403 8.56296 13.7403 12.04 11.5957 14.1846C9.45115 16.3292 5.9741 16.3292 3.82951 14.1846L2.53516 15.479Z" fill="#00E9A3"/>
<path d="M5.12411 12.8901C6.55381 14.3198 8.87182 14.3198 10.3016 12.8901C11.7313 11.4604 11.7313 9.1424 10.3016 7.7127L9.0072 9.00705C9.72205 9.7219 9.72205 10.8809 9.0072 11.5958C8.29231 12.3106 7.13331 12.3106 6.41846 11.5958L5.12411 12.8901ZM15.479 2.53518C12.6196 -0.324225 7.98351 -0.324225 5.12407 2.53518C2.26463 5.39465 2.26467 10.0307 5.12411 12.8901L6.41846 11.5958C4.27391 9.4512 4.27387 5.97415 6.41842 3.8296C8.56301 1.68498 12.0401 1.68498 14.1846 3.8296L15.479 2.53521V2.53518Z" fill="#00E9A3"/>
<path d="M12.8904 5.12403C11.4607 3.69433 9.14263 3.69433 7.71293 5.12403C6.28319 6.55377 6.28319 8.87178 7.71293 10.3015L9.00728 9.00713C8.29243 8.29228 8.29243 7.13327 9.00728 6.41839C9.72213 5.70354 10.8811 5.70354 11.596 6.41839L12.8904 5.12403Z" fill="#00E9A3"/>
<path d="M15.479 2.53517C12.6196 -0.324225 7.9835 -0.324225 5.1241 2.53517C2.26462 5.39465 2.26462 10.0307 5.1241 12.8901L6.41841 11.5958C4.27386 9.4512 4.27386 5.97415 6.41841 3.8296C8.563 1.68498 12.0401 1.68498 14.1846 3.8296L15.479 2.53521V2.53517Z" fill="white" fill-opacity="0.8"/>
<path d="M12.8904 5.12403C11.4607 3.69433 9.14263 3.69433 7.71293 5.12403C6.28319 6.55377 6.28319 8.87178 7.71293 10.3015L9.00728 9.00713C8.29243 8.29228 8.29243 7.13327 9.00728 6.41839C9.72213 5.70354 10.8811 5.70354 11.596 6.41839L12.8904 5.12403Z" fill="white" fill-opacity="0.8"/>
</g>
</svg>
