<svg width="19" height="18" viewBox="0 0 19 18" fill="none" xmlns="http://www.w3.org/2000/svg">
<g id="Wikipedia">
<path id="Vector" d="M15.2595 1.43994H3.73945C2.74585 1.43994 1.93945 2.24634 1.93945 3.23994V14.7599C1.93945 15.7535 2.74585 16.5599 3.73945 16.5599H15.2595C16.2531 16.5599 17.0595 15.7535 17.0595 14.7599V3.23994C17.0595 2.24634 16.2531 1.43994 15.2595 1.43994ZM15.6195 6.32154C15.6195 6.38634 15.5547 6.44754 15.4899 6.44754H14.7483L11.4327 13.2587C11.4003 13.2875 11.3679 13.3199 11.3031 13.3199C11.2383 13.3199 11.2059 13.2875 11.1735 13.2587L9.59665 10.1843L7.89025 13.2587C7.85785 13.2875 7.82545 13.3199 7.76065 13.3199C7.69585 13.3199 7.66345 13.2875 7.63105 13.2587L4.28305 6.47994H3.50905C3.44425 6.47994 3.37945 6.41874 3.37945 6.35394V5.88594C3.37945 5.82114 3.44425 5.75994 3.50905 5.75994H6.12985C6.19465 5.75994 6.25945 5.82114 6.25945 5.88594V6.35394C6.25945 6.41874 6.19465 6.47994 6.12985 6.47994H5.63305L7.95505 11.5631L9.17905 9.36714L7.63105 6.47994H7.11625C7.05145 6.47994 6.98665 6.41874 6.98665 6.35394V5.88594C6.98665 5.82114 7.05145 5.75994 7.11625 5.75994H9.36985C9.43465 5.75994 9.49945 5.82114 9.49945 5.88594V6.35394C9.49945 6.41874 9.43465 6.47994 9.36985 6.47994H8.91985L9.79105 8.23674L10.8531 6.47994H10.3491C10.2843 6.47994 10.2195 6.41874 10.2195 6.35394V5.88594C10.2195 5.82114 10.2843 5.75994 10.3491 5.75994H12.2499C12.3147 5.75994 12.3795 5.82114 12.3795 5.88594V6.35394C12.3795 6.41874 12.3147 6.47994 12.2499 6.47994H11.7531L10.2087 9.05394L11.4651 11.5631L13.8807 6.47994H13.2291C13.1643 6.47994 13.0995 6.41874 13.0995 6.35394V5.88594C13.0995 5.82114 13.1643 5.75994 13.2291 5.75994H15.4899C15.5547 5.75994 15.6195 5.82114 15.6195 5.88594V6.32154Z" fill="white"/>
</g>
</svg>
