<svg width="19" height="18" viewBox="0 0 19 18" fill="none" xmlns="http://www.w3.org/2000/svg">
<path d="M9.5 16.5C13.6421 16.5 17 13.1421 17 9C17 4.85786 13.6421 1.5 9.5 1.5C5.35786 1.5 2 4.85786 2 9C2 13.1421 5.35786 16.5 9.5 16.5Z" fill="#570FCA"/>
<path d="M12.5827 7.40363L13.5652 7.41975L14.1408 6.67163H9.88233L9.99745 7.362L11.0688 7.37925L9.24933 9.0885L7.35033 6.21112H8.5012L8.44383 5.57812H3.95508L4.01283 6.21112H5.39395L8.37483 9.89062V11.625H6.87483V12.75H11.3748V11.625H9.65245V9.83663L12.5827 7.40363Z" fill="white"/>
<path d="M13.1055 7.9375L13.1628 11.1025L13.8536 11.1599L14.7168 8.11L13.1055 7.9375Z" fill="white"/>
<path d="M12.9902 11.6204C12.9902 11.6204 13.6806 11.7355 13.8535 11.6777L13.7384 12.4259L12.9902 12.3685V11.6204Z" fill="white"/>
</svg>
